<svg width="100" height="100" viewBox="0 0 100 100" fill="none" xmlns="http://www.w3.org/2000/svg">
<rect width="100" height="100" rx="16" fill="#BFECFF"/>
<path d="M32.48 29.7H65.44V39.172H44V45.828H51.36C54.4747 45.828 57.1627 46.1693 59.424 46.852C61.728 47.492 63.6267 48.4307 65.12 49.668C66.656 50.8627 67.7867 52.3347 68.512 54.084C69.2373 55.7907 69.6 57.7107 69.6 59.844C69.6 64.452 68.1067 68.0573 65.12 70.66C62.176 73.22 57.5893 74.5 51.36 74.5H32.48V29.7ZM50.08 65.028C52.8533 65.028 54.816 64.58 55.968 63.684C57.12 62.7453 57.696 61.4653 57.696 59.844C57.696 58.2227 57.12 56.964 55.968 56.068C54.816 55.1293 52.8533 54.66 50.08 54.66H44V65.028H50.08Z" fill="#416788"/>
</svg>
