<svg width="100" height="100" viewBox="0 0 100 100" fill="none" xmlns="http://www.w3.org/2000/svg">
<rect width="100" height="100" rx="16" fill="#ABFFD7"/>
<path d="M31.48 29.7H52.92C58.168 29.7 61.9867 30.7453 64.376 32.836C66.7653 34.884 67.96 37.828 67.96 41.668C67.96 43.972 67.3627 45.956 66.168 47.62C64.9733 49.2413 63.352 50.4147 61.304 51.14C63.9493 51.7373 66.04 52.9533 67.576 54.788C69.112 56.58 69.88 58.9267 69.88 61.828C69.88 65.7533 68.5787 68.8467 65.976 71.108C63.416 73.3693 59.2773 74.5 53.56 74.5H31.48V29.7ZM51 65.668C53.7733 65.668 55.6933 65.2627 56.76 64.452C57.8267 63.5987 58.36 62.2973 58.36 60.548C58.36 58.7987 57.8053 57.4973 56.696 56.644C55.6293 55.7907 53.688 55.364 50.872 55.364H43V65.668H51ZM50.104 47.556C52.5787 47.556 54.2427 47.172 55.096 46.404C55.992 45.5933 56.44 44.4627 56.44 43.012C56.44 41.5187 55.992 40.4093 55.096 39.684C54.2427 38.916 52.6 38.532 50.168 38.532H43V47.556H50.104Z" fill="#139A43"/>
</svg>
