<svg width="100" height="100" viewBox="0 0 100 100" fill="none" xmlns="http://www.w3.org/2000/svg">
<rect width="100" height="100" rx="16" fill="#FFB2AE"/>
<path d="M26.96 65.028H32.08C32.6347 63.5773 33.0827 61.9133 33.424 60.036C33.808 58.116 34.1067 56.0893 34.32 53.956C34.5333 51.78 34.6827 49.5613 34.768 47.3C34.896 44.996 34.96 42.756 34.96 40.58V29.7H67.856V65.028H72.4V82.82H62.416V74.5H36.944V82.82H26.96V65.028ZM56.336 65.028V39.172H45.712V41.86C45.712 47.0653 45.4987 51.5667 45.072 55.364C44.688 59.1187 44.048 62.34 43.152 65.028H56.336Z" fill="#FF574C"/>
</svg>
