<svg width="100" height="100" viewBox="0 0 100 100" fill="none" xmlns="http://www.w3.org/2000/svg">
<rect width="100" height="100" rx="16" fill="#A0F781"/>
<path d="M49.94 75.332C43.668 75.332 38.932 73.9667 35.732 71.236C32.5747 68.4627 30.9107 64.644 30.74 59.78H42.644C42.8147 61.828 43.4333 63.4493 44.5 64.644C45.5667 65.796 47.38 66.372 49.94 66.372C52.5 66.372 54.356 65.9027 55.508 64.964C56.66 64.0253 57.236 62.7027 57.236 60.996C57.236 60.1853 57.108 59.4387 56.852 58.756C56.6387 58.0307 56.2333 57.4333 55.636 56.964C55.0813 56.452 54.2707 56.068 53.204 55.812C52.18 55.5133 50.8787 55.364 49.3 55.364H45.204V47.556H49.3C50.4947 47.556 51.4973 47.428 52.308 47.172C53.1187 46.8733 53.7587 46.4893 54.228 46.02C54.74 45.5507 55.1027 45.0173 55.316 44.42C55.5293 43.8227 55.636 43.204 55.636 42.564C55.636 41.924 55.5507 41.3267 55.38 40.772C55.2093 40.1747 54.9107 39.6627 54.484 39.236C54.0573 38.8093 53.46 38.468 52.692 38.212C51.9667 37.956 51.0493 37.828 49.94 37.828C47.892 37.828 46.356 38.2973 45.332 39.236C44.308 40.132 43.732 41.54 43.604 43.46H31.7C31.8707 38.5107 33.428 34.8413 36.372 32.452C39.316 30.0627 43.8387 28.868 49.94 28.868C56.0413 28.868 60.5 29.956 63.316 32.132C66.132 34.308 67.54 37.4653 67.54 41.604C67.54 43.9507 66.9427 45.956 65.748 47.62C64.596 49.2413 62.932 50.4147 60.756 51.14C63.4867 51.78 65.556 53.0173 66.964 54.852C68.4147 56.644 69.14 58.9907 69.14 61.892C69.14 63.8973 68.756 65.732 67.988 67.396C67.22 69.0173 66.0467 70.4253 64.468 71.62C62.8893 72.8147 60.884 73.732 58.452 74.372C56.0627 75.012 53.2253 75.332 49.94 75.332Z" fill="#136F63"/>
</svg>
