<svg width="100" height="100" viewBox="0 0 100 100" fill="none" xmlns="http://www.w3.org/2000/svg">
<rect width="100" height="100" rx="16" fill="#FDABFF"/>
<path d="M29.98 29.7H41.5V56.58L59.1 29.7H69.66V74.5H58.14V47.62L40.54 74.5H29.98V29.7ZM49.82 27.14C45.2973 27.14 42.0333 26.2227 40.028 24.388C38.0227 22.5533 37.02 19.844 37.02 16.26H46.364C46.364 18.0093 46.62 19.204 47.132 19.844C47.6867 20.4413 48.5827 20.74 49.82 20.74C51.0573 20.74 51.932 20.4413 52.444 19.844C52.9987 19.204 53.276 18.0093 53.276 16.26H62.62C62.62 19.844 61.6173 22.5533 59.612 24.388C57.6067 26.2227 54.3427 27.14 49.82 27.14Z" fill="#C60F7B"/>
</svg>
