<svg width="100" height="100" viewBox="0 0 100 100" fill="none" xmlns="http://www.w3.org/2000/svg">
<rect width="100" height="100" rx="16" fill="#B0FFB3"/>
<path d="M30.98 75.332C30.6387 75.332 30.148 75.3107 29.508 75.268C28.9107 75.268 28.4413 75.2253 28.1 75.14V65.028C28.3133 65.0707 28.6333 65.092 29.06 65.092C30.084 65.092 30.9587 64.9 31.684 64.516C32.452 64.132 33.0493 63.2147 33.476 61.764C33.9453 60.3133 34.2867 58.18 34.5 55.364C34.7133 52.5053 34.82 48.644 34.82 43.78V29.7H68.74V74.5H57.22V39.108H45.572V45.06C45.572 51.716 45.2307 57.028 44.548 60.996C43.8653 64.964 42.884 68.0147 41.604 70.148C40.3667 72.2813 38.8307 73.6893 36.996 74.372C35.204 75.012 33.1987 75.332 30.98 75.332Z" fill="#55828B"/>
</svg>
