<svg width="100" height="100" viewBox="0 0 100 100" fill="none" xmlns="http://www.w3.org/2000/svg">
<rect width="100" height="100" rx="50" fill="#56DB35"/>
<path d="M51.56 72.228C48.984 72.228 46.5387 71.8547 44.224 71.108C41.9093 70.3613 39.8747 69.1853 38.12 67.58C36.4027 65.9373 35.04 63.8653 34.032 61.364C33.024 58.8253 32.52 55.764 32.52 52.18V51.06C32.52 47.6253 33.024 44.676 34.032 42.212C35.04 39.748 36.4027 37.732 38.12 36.164C39.8747 34.596 41.9093 33.4387 44.224 32.692C46.5387 31.9453 48.984 31.572 51.56 31.572C54.136 31.572 56.5813 31.9453 58.896 32.692C61.2107 33.4387 63.2267 34.596 64.944 36.164C66.6987 37.732 68.08 39.748 69.088 42.212C70.096 44.676 70.6 47.6253 70.6 51.06V52.18C70.6 55.764 70.096 58.8253 69.088 61.364C68.08 63.8653 66.6987 65.9373 64.944 67.58C63.2267 69.1853 61.2107 70.3613 58.896 71.108C56.5813 71.8547 54.136 72.228 51.56 72.228ZM51.56 63.828C52.68 63.828 53.7627 63.66 54.808 63.324C55.8533 62.9507 56.768 62.3347 57.552 61.476C58.336 60.58 58.9707 59.3853 59.456 57.892C59.9413 56.3987 60.184 54.4947 60.184 52.18V51.06C60.184 48.8947 59.9413 47.1027 59.456 45.684C58.9707 44.228 58.336 43.0893 57.552 42.268C56.768 41.4093 55.8533 40.812 54.808 40.476C53.7627 40.14 52.68 39.972 51.56 39.972C50.44 39.972 49.3573 40.14 48.312 40.476C47.2667 40.812 46.352 41.4093 45.568 42.268C44.784 43.0893 44.1493 44.228 43.664 45.684C43.1787 47.1027 42.936 48.8947 42.936 51.06V52.18C42.936 54.4947 43.1787 56.3987 43.664 57.892C44.1493 59.3853 44.784 60.58 45.568 61.476C46.352 62.3347 47.2667 62.9507 48.312 63.324C49.3573 63.66 50.44 63.828 51.56 63.828Z" fill="#F3F3F3"/>
</svg>
