<svg width="100" height="100" viewBox="0 0 100 100" fill="none" xmlns="http://www.w3.org/2000/svg">
<rect width="100" height="100" rx="16" fill="#FFD39F"/>
<path d="M32.98 29.7H51.22C57.4493 29.7 62.036 31.0653 64.98 33.796C67.9667 36.484 69.46 40.2173 69.46 44.996C69.46 49.7747 67.9667 53.5293 64.98 56.26C62.036 58.948 57.4493 60.292 51.22 60.292H44.5V74.5H32.98V29.7ZM49.94 50.82C52.884 50.82 54.9533 50.3293 56.148 49.348C57.3427 48.3667 57.94 46.916 57.94 44.996C57.94 43.076 57.3427 41.6253 56.148 40.644C54.9533 39.6627 52.884 39.172 49.94 39.172H44.5V50.82H49.94Z" fill="#EC4E20"/>
</svg>
