<svg width="100" height="100" viewBox="0 0 100 100" fill="none" xmlns="http://www.w3.org/2000/svg">
<rect width="100" height="100" rx="16" fill="#FFF689"/>
<path d="M50.68 75.332C47.608 75.332 44.792 74.9267 42.232 74.116C39.672 73.2627 37.4747 71.9187 35.64 70.084C33.848 68.2493 32.44 65.8813 31.416 62.98C30.392 60.0787 29.88 56.5373 29.88 52.356V51.14C29.88 47.2147 30.4133 43.844 31.48 41.028C32.5467 38.212 34.0187 35.908 35.896 34.116C37.7733 32.324 39.9707 31.0013 42.488 30.148C45.048 29.2947 47.7787 28.868 50.68 28.868C53.2827 28.868 55.7147 29.1667 57.976 29.764C60.28 30.3613 62.2853 31.3 63.992 32.58C65.7413 33.86 67.1493 35.524 68.216 37.572C69.3253 39.62 69.9867 42.116 70.2 45.06H58.296C58.0827 43.8653 57.7413 42.8627 57.272 42.052C56.8027 41.1987 56.2267 40.516 55.544 40.004C54.8613 39.4493 54.0933 39.0653 53.24 38.852C52.4293 38.596 51.576 38.468 50.68 38.468C49.4 38.468 48.2053 38.7027 47.096 39.172C46.0293 39.5987 45.0907 40.324 44.28 41.348C43.512 42.3293 42.8933 43.6307 42.424 45.252C41.9973 46.8733 41.784 48.836 41.784 51.14V52.484C41.784 54.9587 42.0187 57.0493 42.488 58.756C43 60.42 43.6613 61.7853 44.472 62.852C45.2827 63.876 46.2213 64.6227 47.288 65.092C48.3547 65.5187 49.4853 65.732 50.68 65.732C52.856 65.732 54.584 65.22 55.864 64.196C57.1867 63.1293 57.9973 61.444 58.296 59.14H70.2C70.0293 62.1267 69.4107 64.644 68.344 66.692C67.32 68.74 65.9333 70.404 64.184 71.684C62.4773 72.964 60.472 73.9027 58.168 74.5C55.864 75.0547 53.368 75.332 50.68 75.332Z" fill="#F78764"/>
</svg>
