<svg width="100" height="100" viewBox="0 0 100 100" fill="none" xmlns="http://www.w3.org/2000/svg">
<rect width="100" height="100" rx="50" fill="#35DBDB"/>
<path d="M41.76 72.228C41.3493 72.228 40.9387 72.2093 40.528 72.172C40.1547 72.1347 39.8187 72.0787 39.52 72.004V63.66C39.8187 63.6973 40.1173 63.7347 40.416 63.772C40.7147 63.8093 41.0693 63.828 41.48 63.828C42.3013 63.828 42.9733 63.7907 43.496 63.716C44.0187 63.604 44.448 63.436 44.784 63.212C45.12 62.988 45.4 62.6893 45.624 62.316C45.848 61.9427 46.0533 61.476 46.24 60.916L30.56 32.3H40.752L51.168 52.18L59.344 32.3H69.2L56.096 61.98C55.2373 63.884 54.3973 65.4893 53.576 66.796C52.7547 68.0653 51.8027 69.1107 50.72 69.932C49.6373 70.7533 48.368 71.332 46.912 71.668C45.4933 72.0413 43.776 72.228 41.76 72.228Z" fill="#F3F3F3"/>
</svg>
