<svg width="100" height="100" viewBox="0 0 100 100" fill="none" xmlns="http://www.w3.org/2000/svg">
<rect width="100" height="100" rx="16" fill="#DFC2FF"/>
<path d="M44.192 72.58C40.864 72.58 37.856 72.0893 35.168 71.108C32.5227 70.1267 30.2613 68.74 28.384 66.948C26.5067 65.156 25.056 63.0013 24.032 60.484C23.0507 57.9667 22.56 55.172 22.56 52.1V50.82C22.56 48.0893 23.0507 45.5507 24.032 43.204C25.056 40.8573 26.5067 38.8307 28.384 37.124C30.2613 35.3747 32.5227 34.0307 35.168 33.092C37.856 32.1107 40.864 31.62 44.192 31.62V27.78H55.328V31.62C58.656 31.62 61.6427 32.1107 64.288 33.092C66.976 34.0307 69.2587 35.3747 71.136 37.124C73.0133 38.8307 74.4427 40.8573 75.424 43.204C76.448 45.5507 76.96 48.0893 76.96 50.82V52.1C76.96 55.172 76.448 57.9667 75.424 60.484C74.4427 63.0013 73.0133 65.156 71.136 66.948C69.2587 68.74 66.976 70.1267 64.288 71.108C61.6427 72.0893 58.656 72.58 55.328 72.58V76.42H44.192V72.58ZM65.056 50.82C65.056 47.492 64.2027 45.06 62.496 43.524C60.7893 41.988 58.4 41.22 55.328 41.22V62.98C58.4853 62.98 60.896 62.148 62.56 60.484C64.224 58.82 65.056 56.0253 65.056 52.1V50.82ZM34.464 52.1C34.464 56.0253 35.2747 58.82 36.896 60.484C38.5173 62.148 40.9493 62.98 44.192 62.98V41.22C41.0347 41.22 38.624 41.988 36.96 43.524C35.296 45.06 34.464 47.492 34.464 50.82V52.1Z" fill="#9055A2"/>
</svg>
