<svg width="100" height="100" viewBox="0 0 100 100" fill="none" xmlns="http://www.w3.org/2000/svg">
<rect width="100" height="100" rx="16" fill="#FFC1D0"/>
<path d="M55.84 56.644C54.7307 57.3693 53.2587 58.0307 51.424 58.628C49.5893 59.1827 47.4347 59.46 44.96 59.46C40.3093 59.46 36.7893 58.308 34.4 56.004C32.0533 53.6573 30.88 49.9027 30.88 44.74V29.7H42.4V42.82C42.4 45.38 42.9333 47.1933 44 48.26C45.0667 49.3267 46.56 49.86 48.48 49.86C50.272 49.86 51.744 49.668 52.896 49.284C54.0907 48.8573 55.072 48.4093 55.84 47.94V29.7H67.36V74.5H55.84V56.644Z" fill="#66101F"/>
</svg>
