<svg width="100" height="100" viewBox="0 0 100 100" fill="none" xmlns="http://www.w3.org/2000/svg">
<rect width="100" height="100" rx="16" fill="#CDFFF0"/>
<path d="M35.6 39.172H27.28V29.7H47.12V44.548H53.84C60.0693 44.548 64.656 45.892 67.6 48.58C70.5867 51.268 72.08 54.916 72.08 59.524C72.08 64.132 70.5867 67.78 67.6 70.468C64.656 73.156 60.0693 74.5 53.84 74.5H35.6V39.172ZM52.56 65.028C55.248 65.028 57.1893 64.516 58.384 63.492C59.5787 62.468 60.176 61.1453 60.176 59.524C60.176 57.9027 59.5787 56.58 58.384 55.556C57.1893 54.532 55.248 54.02 52.56 54.02H47.12V65.028H52.56Z" fill="#247B7B"/>
</svg>
