<svg width="100" height="100" viewBox="0 0 100 100" fill="none" xmlns="http://www.w3.org/2000/svg">
<rect width="100" height="100" rx="50" fill="#FE0089"/>
<path d="M25.42 32.3H35.5V45.292H40.26C45.7107 45.292 49.724 46.468 52.3 48.82C54.9133 51.172 56.22 54.364 56.22 58.396C56.22 62.428 54.9133 65.62 52.3 67.972C49.724 70.324 45.7107 71.5 40.26 71.5H25.42V32.3ZM39.14 63.212C41.492 63.212 43.1907 62.764 44.236 61.868C45.2813 60.972 45.804 59.8147 45.804 58.396C45.804 56.9773 45.2813 55.82 44.236 54.924C43.1907 54.028 41.492 53.58 39.14 53.58H35.5V63.212H39.14ZM59.02 32.3H69.1V71.5H59.02V32.3Z" fill="#F3F3F3"/>
</svg>
