<svg width="100" height="100" viewBox="0 0 100 100" fill="none" xmlns="http://www.w3.org/2000/svg">
<rect width="100" height="100" rx="16" fill="#D4C2FC"/>
<path d="M32.98 29.7H44.5V44.548H51.22C57.4493 44.548 62.036 45.892 64.98 48.58C67.9667 51.268 69.46 54.916 69.46 59.524C69.46 64.132 67.9667 67.78 64.98 70.468C62.036 73.156 57.4493 74.5 51.22 74.5H32.98V29.7ZM49.94 65.028C52.628 65.028 54.5693 64.516 55.764 63.492C56.9587 62.468 57.556 61.1453 57.556 59.524C57.556 57.9027 56.9587 56.58 55.764 55.556C54.5693 54.532 52.628 54.02 49.94 54.02H44.5V65.028H49.94Z" fill="#7D53DE"/>
</svg>
