<svg width="100" height="100" viewBox="0 0 100 100" fill="none" xmlns="http://www.w3.org/2000/svg">
<rect width="100" height="100" rx="50" fill="#FE8900"/>
<path d="M50.04 72.228C47.688 72.228 45.504 71.9853 43.488 71.5C41.472 70.9773 39.6987 70.156 38.168 69.036C36.6747 67.916 35.4613 66.46 34.528 64.668C33.632 62.876 33.1093 60.6733 32.96 58.06H43.376C43.6373 60.076 44.3467 61.5507 45.504 62.484C46.6613 63.38 48.192 63.828 50.096 63.828C51.0293 63.828 51.9067 63.6973 52.728 63.436C53.5867 63.1747 54.352 62.7267 55.024 62.092C55.696 61.42 56.256 60.5613 56.704 59.516C57.152 58.4333 57.4693 57.0893 57.656 55.484H45.84V47.756H57.6C57.2267 44.844 56.3867 42.828 55.08 41.708C53.7733 40.5507 52.0933 39.972 50.04 39.972C49.2933 39.972 48.5467 40.084 47.8 40.308C47.0907 40.4947 46.4373 40.8307 45.84 41.316C45.2427 41.764 44.72 42.3613 44.272 43.108C43.824 43.8173 43.5253 44.6947 43.376 45.74H32.96C33.1467 43.164 33.7067 40.98 34.64 39.188C35.6107 37.396 36.8427 35.94 38.336 34.82C39.8667 33.7 41.6213 32.8787 43.6 32.356C45.5787 31.8333 47.7253 31.572 50.04 31.572C52.5787 31.572 54.9493 31.9453 57.152 32.692C59.392 33.4387 61.3333 34.596 62.976 36.164C64.6187 37.732 65.9067 39.748 66.84 42.212C67.7733 44.676 68.24 47.6253 68.24 51.06V52.124C68.24 55.7827 67.792 58.8813 66.896 61.42C66 63.9587 64.7493 66.0307 63.144 67.636C61.576 69.2413 59.672 70.4173 57.432 71.164C55.192 71.8733 52.728 72.228 50.04 72.228Z" fill="#F3F3F3"/>
</svg>
