<svg width="100" height="100" viewBox="0 0 100 100" fill="none" xmlns="http://www.w3.org/2000/svg">
<rect width="100" height="100" rx="50" fill="#B035DB"/>
<path d="M23.42 32.3H33.5V47.196H37.42C37.756 44.4707 38.4093 42.1187 39.38 40.14C40.388 38.1613 41.6387 36.5373 43.132 35.268C44.6253 33.9987 46.3427 33.0653 48.284 32.468C50.2253 31.8707 52.2973 31.572 54.5 31.572C56.964 31.572 59.26 31.9453 61.388 32.692C63.516 33.4387 65.3827 34.596 66.988 36.164C68.5933 37.732 69.844 39.748 70.74 42.212C71.6733 44.676 72.14 47.6253 72.14 51.06V52.18C72.14 55.764 71.6733 58.8253 70.74 61.364C69.844 63.8653 68.5933 65.9373 66.988 67.58C65.3827 69.1853 63.516 70.3613 61.388 71.108C59.26 71.8547 56.964 72.228 54.5 72.228C52.26 72.228 50.1507 71.9107 48.172 71.276C46.1933 70.6413 44.4387 69.652 42.908 68.308C41.4147 66.964 40.164 65.2467 39.156 63.156C38.1853 61.028 37.5693 58.4707 37.308 55.484H33.5V71.5H23.42V32.3ZM54.5 63.828C55.4707 63.828 56.3853 63.66 57.244 63.324C58.14 62.9507 58.9053 62.3347 59.54 61.476C60.212 60.58 60.7347 59.3853 61.108 57.892C61.5187 56.3987 61.724 54.4947 61.724 52.18V51.06C61.724 48.8947 61.5187 47.1027 61.108 45.684C60.7347 44.228 60.212 43.0893 59.54 42.268C58.9053 41.4093 58.14 40.812 57.244 40.476C56.3853 40.14 55.4707 39.972 54.5 39.972C53.5293 39.972 52.596 40.14 51.7 40.476C50.8413 40.812 50.076 41.4093 49.404 42.268C48.7693 43.0893 48.2467 44.228 47.836 45.684C47.4627 47.1027 47.276 48.8947 47.276 51.06V52.18C47.276 54.4947 47.4627 56.3987 47.836 57.892C48.2467 59.3853 48.7693 60.58 49.404 61.476C50.076 62.3347 50.8413 62.9507 51.7 63.324C52.596 63.66 53.5293 63.828 54.5 63.828Z" fill="#F3F3F3"/>
</svg>
