<svg width="100" height="100" viewBox="0 0 100 100" fill="none" xmlns="http://www.w3.org/2000/svg">
<rect width="100" height="100" rx="50" fill="#5AB0FF"/>
<path d="M41.2 56.996C38.5867 56.0253 36.6267 54.5507 35.32 52.572C34.0133 50.5933 33.36 48.204 33.36 45.404C33.36 41.372 34.6107 38.18 37.112 35.828C39.6133 33.476 43.3093 32.3 48.2 32.3H65.28V71.5H55.2V58.06H49.992L41.984 71.5H31.68L41.2 56.996ZM43.44 45.404C43.44 47.0093 43.9253 48.2227 44.896 49.044C45.904 49.828 47.752 50.22 50.44 50.22H55.2V40.588H50.44C47.752 40.588 45.904 40.9987 44.896 41.82C43.9253 42.604 43.44 43.7987 43.44 45.404Z" fill="#F3F3F3"/>
</svg>
