<svg width="20" height="20" viewBox="0 0 20 20" fill="none" xmlns="http://www.w3.org/2000/svg">
<path fill-rule="evenodd" clip-rule="evenodd" d="M10 -8.74228e-07C15.5228 -3.91405e-07 20 4.47715 20 10C20 15.5228 15.5228 20 10 20C4.47715 20 -1.35705e-06 15.5228 -8.74228e-07 10C-3.91405e-07 4.47715 4.47715 -1.35705e-06 10 -8.74228e-07ZM10.9007 10.1334C11.0072 10.0345 11.0072 9.8659 10.9007 9.767L8.18986 7.24979C7.88632 6.96794 7.86875 6.49339 8.1506 6.18986C8.43245 5.88632 8.907 5.86875 9.21053 6.1506L11.9214 8.66781C12.667 9.36016 12.667 10.5402 11.9214 11.2326L9.21053 13.7498C8.907 14.0316 8.43245 14.0141 8.1506 13.7105C7.86875 13.407 7.88632 12.9325 8.18986 12.6506L10.9007 10.1334Z" fill="#6F2DBD"/>
</svg>
