<svg width="57" height="43" viewBox="0 0 57 43" fill="none" xmlns="http://www.w3.org/2000/svg">
<path fill-rule="evenodd" clip-rule="evenodd" d="M17.2886 0.0753153C8.52674 -0.800873 0.923828 6.07967 0.923828 14.8853V30.2625C0.923828 42.0757 16.1303 46.8691 22.9047 37.1913L23.6404 36.1402C26.6474 31.8446 33.0575 31.9925 35.863 36.4224C41.8799 45.9228 56.5763 41.6604 56.5763 30.4149V14.8852C56.5763 6.07967 48.9734 -0.800872 40.2115 0.0753156L30.1023 1.08624C29.203 1.17616 28.2971 1.17616 27.3978 1.08624L17.2886 0.0753153ZM46.8695 14.8206C46.8695 16.2502 45.7106 17.4091 44.281 17.4091C42.8514 17.4091 41.6925 16.2502 41.6925 14.8206C41.6925 13.391 42.8514 12.2321 44.281 12.2321C45.7106 12.2321 46.8695 13.391 46.8695 14.8206ZM39.104 25.1746C40.5336 25.1746 41.6925 24.0156 41.6925 22.5861C41.6925 21.1565 40.5336 19.9976 39.104 19.9976C37.6744 19.9976 36.5155 21.1565 36.5155 22.5861C36.5155 24.0156 37.6744 25.1746 39.104 25.1746ZM18.3961 11.5264C19.5007 11.5264 20.3961 12.4218 20.3961 13.5264V16.7033H23.5731C24.6777 16.7033 25.5731 17.5988 25.5731 18.7033C25.5731 19.8079 24.6777 20.7033 23.5731 20.7033H20.3961V23.8803C20.3961 24.9849 19.5007 25.8803 18.3961 25.8803C17.2915 25.8803 16.3961 24.9849 16.3961 23.8803V20.7033H13.2191C12.1146 20.7033 11.2191 19.8079 11.2191 18.7033C11.2191 17.5988 12.1146 16.7033 13.2191 16.7033H16.3961V13.5264C16.3961 12.4218 17.2915 11.5264 18.3961 11.5264Z" fill="#6F2DBD"/>
</svg>
