<svg width="49" height="47" viewBox="0 0 49 47" fill="none" xmlns="http://www.w3.org/2000/svg">
<path d="M23.4718 1.70847C23.9382 0.933481 25.0618 0.933482 25.5282 1.70847L32.6314 13.5116C32.799 13.7901 33.0723 13.9886 33.3888 14.0619L46.8094 17.1702C47.6905 17.3742 48.0377 18.4428 47.4448 19.1259L38.4143 29.5288C38.2013 29.7742 38.0969 30.0955 38.125 30.4192L39.3161 44.1434C39.3943 45.0445 38.4854 45.7049 37.6525 45.3521L24.9681 39.9783C24.6689 39.8516 24.3311 39.8516 24.0319 39.9783L11.3475 45.3521C10.5147 45.7049 9.60568 45.0445 9.68388 44.1434L10.875 30.4192C10.9031 30.0955 10.7987 29.7742 10.5857 29.5288L1.55518 19.1259C0.962253 18.4428 1.30945 17.3742 2.19063 17.1702L15.6112 14.0619C15.9277 13.9886 16.201 13.7901 16.3686 13.5117L23.4718 1.70847Z" fill="#F7DD81" stroke="#F7DD81" stroke-width="1.5"/>
</svg>
