<svg width="42" height="42" viewBox="0 0 42 42" fill="none" xmlns="http://www.w3.org/2000/svg">
<rect x="1" y="1" width="40" height="40" rx="20" fill="#EFE9F4"/>
<path fill-rule="evenodd" clip-rule="evenodd" d="M17.0908 31.8838C16.705 31.7483 16.4573 31.6458 16.0431 31.45C15.7925 31.3316 15.7378 31.2947 15.6144 31.1609C15.4529 30.9857 15.3264 30.7413 15.2866 30.5273C15.2454 30.3054 15.2722 30.0844 15.3827 29.7368C15.4971 29.3766 15.5523 29.0918 15.5523 28.8611C15.5523 27.6297 14.6288 26.5978 13.4042 26.4609C13.0521 26.4216 12.7626 26.4585 12.3082 26.6009C11.762 26.7722 11.5106 26.7715 11.1486 26.5979C10.9227 26.4896 10.7118 26.2888 10.6086 26.0838C10.466 25.8004 10.2336 25.2433 10.115 24.9005C9.98678 24.5299 9.97584 24.4313 10.033 24.1616C10.1261 23.722 10.3492 23.4614 10.8549 23.2014C11.2489 22.9989 11.5104 22.8041 11.7216 22.5559C11.9357 22.3043 12.0691 22.066 12.1856 21.7267C12.2769 21.4608 12.2815 21.433 12.2914 21.0883C12.3032 20.682 12.2769 20.5061 12.1536 20.1654C12.0039 19.7515 11.7134 19.3566 11.366 19.0947C11.26 19.0148 11.03 18.8757 10.8549 18.7858C10.4666 18.5861 10.2661 18.4065 10.1439 18.1488C10.0439 17.9379 9.98972 17.6809 10.0064 17.4963C10.0343 17.1891 10.5669 15.9073 10.757 15.6898C10.884 15.5445 11.0869 15.4082 11.2904 15.3314C11.4191 15.2828 11.4902 15.2724 11.6977 15.2718C11.9329 15.2711 11.9707 15.2781 12.2843 15.3812C12.7133 15.5221 12.9153 15.5541 13.2719 15.5375C13.8869 15.5088 14.4152 15.2751 14.8479 14.8401C15.2899 14.3959 15.519 13.8797 15.5454 13.2684C15.5615 12.8934 15.5347 12.7186 15.3937 12.2823C15.295 11.9769 15.2825 11.9137 15.2808 11.7113C15.2784 11.4226 15.3313 11.2356 15.4802 11.0074C15.6565 10.7373 15.7538 10.6674 16.2758 10.4361C16.5297 10.3236 16.8775 10.1798 17.0486 10.1166C17.3377 10.0099 17.3761 10.0016 17.5873 10.0007C17.8555 9.99955 18.0543 10.0571 18.2742 10.1994C18.4771 10.3307 18.6197 10.5042 18.7741 10.8078C19.0926 11.4341 19.4129 11.7757 19.9216 12.0313C20.5856 12.365 21.3505 12.38 22.0069 12.0722C22.2738 11.9471 22.4729 11.8071 22.6883 11.593C22.9012 11.3814 23.0103 11.2246 23.2009 10.8557C23.2772 10.7079 23.3895 10.5254 23.4502 10.4501C23.6831 10.1614 24.0341 9.9989 24.4226 10C24.6241 10.0006 24.6612 10.0092 24.9972 10.1335C25.1947 10.2066 25.5527 10.3555 25.7928 10.4644C26.2049 10.6512 26.2372 10.6707 26.3707 10.8136C26.4485 10.8968 26.5503 11.0411 26.5968 11.1342C26.7738 11.488 26.7752 11.7492 26.6033 12.2982C26.461 12.7528 26.4241 13.0424 26.4634 13.3948C26.5259 13.9544 26.7681 14.459 27.1618 14.8501C27.6101 15.2954 28.2159 15.544 28.8527 15.544C29.1304 15.544 29.3566 15.5013 29.7408 15.3762C29.9063 15.3223 30.1084 15.272 30.1899 15.2644C30.5313 15.2325 30.8969 15.3625 31.1672 15.612C31.2907 15.726 31.3341 15.7896 31.4393 16.0111C31.78 16.7286 32 17.3386 32 17.566C32 17.8966 31.8609 18.2278 31.6231 18.4639C31.4918 18.5942 31.4017 18.6552 31.145 18.787C30.7917 18.9685 30.5715 19.1242 30.3636 19.3394C30.1051 19.6069 29.9003 19.9627 29.7815 20.3503C29.7211 20.5475 29.7165 20.5926 29.7165 20.9936C29.7165 21.3945 29.7211 21.4396 29.7815 21.6368C29.9077 22.0486 30.1134 22.3957 30.4028 22.6853C30.6138 22.8964 30.8148 23.0343 31.186 23.2225C31.6369 23.451 31.8866 23.7492 31.9734 24.1627C32.0373 24.4674 31.9691 24.7605 31.6713 25.461C31.4162 26.0611 31.3224 26.2318 31.1713 26.3713C30.8978 26.6236 30.5687 26.7465 30.2283 26.7233C30.1081 26.7151 29.9381 26.6755 29.7136 26.6032C29.3002 26.4701 29.0548 26.4322 28.7215 26.4498C28.1305 26.481 27.568 26.7312 27.1508 27.1487C26.6336 27.6661 26.3729 28.4237 26.4675 29.1337C26.4831 29.25 26.5453 29.5033 26.6058 29.6966C26.6807 29.936 26.7193 30.1056 26.7267 30.2279C26.7475 30.5711 26.6248 30.899 26.3738 31.1713C26.2638 31.2906 26.1987 31.3347 25.9788 31.4387C25.2894 31.7647 24.641 32.0004 24.4345 32C24.1009 31.9994 23.7569 31.8555 23.5248 31.6193C23.3996 31.492 23.3348 31.3946 23.194 31.1224C22.8988 30.5516 22.5478 30.1842 22.0784 29.9543C21.6836 29.7611 21.4203 29.6992 20.9931 29.6992C20.4089 29.6992 19.8808 29.8963 19.4283 30.2832C19.1915 30.4858 19.0027 30.74 18.7988 31.1312C18.705 31.3112 18.584 31.5036 18.5183 31.5774C18.2965 31.8264 17.9867 31.9718 17.6352 31.9919C17.4387 32.0032 17.42 31.9995 17.0908 31.8838ZM21.7497 26.0467C22.5791 25.9255 23.368 25.5962 24.0611 25.082C24.5309 24.7335 25.0656 24.1436 25.369 23.6391C25.6579 23.159 25.9127 22.5039 26.0113 21.9877C26.1787 21.1123 26.1173 20.1931 25.8361 19.3637C25.6999 18.962 25.6021 18.7477 25.3953 18.3981C25.1685 18.0147 24.9341 17.7159 24.5925 17.3745C23.7898 16.5723 22.8163 16.0915 21.6573 15.9247C21.3918 15.8865 20.6536 15.886 20.3645 15.9237C18.6329 16.15 17.1372 17.2289 16.3915 18.7898C16.0625 19.4783 15.9084 20.1633 15.9037 20.9576C15.9 21.567 15.9641 22.0156 16.128 22.5266C16.3844 23.3264 16.788 23.989 17.3838 24.5884C18.2802 25.4902 19.3719 25.9911 20.6638 26.0932C20.8828 26.1104 21.4915 26.0844 21.7497 26.0467Z" fill="#6F2DBD"/>
<rect x="1" y="1" width="40" height="40" rx="20" stroke="#6F2DBD" stroke-width="2"/>
</svg>
