<svg width="42" height="42" viewBox="0 0 42 42" fill="none" xmlns="http://www.w3.org/2000/svg">
<rect x="1" y="1" width="40" height="40" rx="20" fill="#F3F3F3"/>
<path d="M19.9718 11.7085C20.4382 10.9335 21.5618 10.9335 22.0282 11.7085L24.3586 15.5809C24.5262 15.8593 24.7995 16.0578 25.116 16.1312L29.5191 17.1509C30.4002 17.355 30.7474 18.4236 30.1545 19.1066L27.1918 22.5196C26.9788 22.765 26.8744 23.0863 26.9025 23.41L27.2932 27.9127C27.3714 28.8138 26.4625 29.4742 25.6296 29.1214L21.4681 27.3583C21.1689 27.2316 20.8311 27.2316 20.5319 27.3583L16.3704 29.1214C15.5375 29.4742 14.6286 28.8138 14.7068 27.9127L15.0975 23.41C15.1256 23.0863 15.0212 22.765 14.8082 22.5196L11.8455 19.1066C11.2526 18.4236 11.5998 17.355 12.4809 17.1509L16.884 16.1312C17.2005 16.0578 17.4738 15.8593 17.6414 15.5809L19.9718 11.7085Z" fill="#F7DD81" stroke="#F7DD81" stroke-width="1.5"/>
<rect x="1" y="1" width="40" height="40" rx="20" stroke="#F7DD81" stroke-width="2"/>
</svg>
