<svg width="42" height="42" viewBox="0 0 42 42" fill="none" xmlns="http://www.w3.org/2000/svg">
<rect x="1" y="1" width="40" height="40" rx="20" fill="#F3F3F3"/>
<path d="M22.7524 12.1722C22.7502 12.096 22.6671 12.0464 22.6016 12.0855C19.1363 14.1558 19.2004 19.3491 19.2418 20.2901C19.2449 20.3611 19.1778 20.4112 19.1135 20.3809C18.7132 20.1924 17.5661 19.4823 17.5027 17.5153C17.5003 17.439 17.4179 17.3899 17.3522 17.4288C15.3458 18.618 14 20.8144 14 23.25C14 26.9779 17.134 30 21 30C24.866 30 28 26.9779 28 23.25C28 17.8341 22.8803 16.6694 22.7524 12.1722Z" fill="#FF785A" stroke="#FF785A" stroke-width="1.5"/>
<rect x="1" y="1" width="40" height="40" rx="20" stroke="#FF785A" stroke-width="2"/>
</svg>
